<svg xmlns="http://www.w3.org/2000/svg" viewBox="0 0 150 160"><ellipse cx="75" cy="148" rx="43" ry="8" fill="#171221" opacity=".3"/><path d="M42 54 L5 34 31 72 M108 54 L145 34 119 72" fill="#76a947" stroke="#261d2d" stroke-width="5"/><path d="M53 99 L39 141 60 145 75 119 88 145 110 140 96 98Z" fill="#543c31" stroke="#261d2d" stroke-width="5"/><path d="M43 91 Q75 70 107 91 L99 124 75 134 49 124Z" fill="#9d4733" stroke="#261d2d" stroke-width="5"/><circle cx="75" cy="65" r="35" fill="#78a94b" stroke="#261d2d" stroke-width="5"/><path d="M45 62 Q49 27 76 30 Q105 27 107 64 L94 50 83 61 73 44 61 61 50 50Z" fill="#3c3026" stroke="#261d2d" stroke-width="5"/><path d="M54 67 L66 64 M84 64 L97 68" stroke="#241a24" stroke-width="5"/><ellipse cx="61" cy="72" rx="5" ry="7" fill="#ffd84a"/><ellipse cx="91" cy="72" rx="5" ry="7" fill="#ffd84a"/><path d="M62 87 Q75 96 91 86" fill="#3d211d" stroke="#261d2d" stroke-width="3"/><path d="M67 88 L71 98 76 89 M83 89 L88 98 91 87" fill="#fff1c8"/><path d="M108 98 Q130 77 141 86 Q129 112 106 119Z" fill="#d7d9dd" stroke="#29212e" stroke-width="5"/><path d="M105 105 L91 116" stroke="#6f482d" stroke-width="8"/></svg>