<svg xmlns="http://www.w3.org/2000/svg" viewBox="0 0 170 190"><ellipse cx="83" cy="178" rx="52" ry="9" fill="#171221" opacity=".3"/><path d="M50 105 L31 166 61 174 82 134 103 174 134 164 113 104Z" fill="#342c31" stroke="#211c29" stroke-width="6"/><path d="M30 105 Q39 74 60 78 L83 66 108 78 Q133 75 143 107 L119 143 83 151 47 142Z" fill="#783e31" stroke="#211c29" stroke-width="6"/><path d="M35 100 L16 86 8 112 42 122 M132 100 L153 85 164 111 126 122" fill="#39333a" stroke="#211c29" stroke-width="6"/><path d="M38 91 L22 66 51 72 M128 91 L145 65 115 72" fill="#b69a6a" stroke="#211c29" stroke-width="5"/><circle cx="83" cy="58" r="39" fill="#678e45" stroke="#211c29" stroke-width="6"/><path d="M47 56 Q48 19 83 19 Q120 18 120 58 L105 43 95 57 83 39 69 58 58 43Z" fill="#252126" stroke="#211c29" stroke-width="6"/><path d="M57 61 L72 57 M94 57 L110 62" stroke="#211c29" stroke-width="6"/><ellipse cx="67" cy="68" rx="5" ry="7" fill="#ffbf32"/><ellipse cx="101" cy="68" rx="5" ry="7" fill="#ffbf32"/><path d="M61 86 Q83 102 107 84" fill="#3b211d" stroke="#211c29" stroke-width="4"/><path d="M65 88 L72 106 80 91 M96 91 L104 106 109 87" fill="#fff0cc"/><path d="M129 112 L160 82 168 91 140 123Z" fill="#cfd3dc" stroke="#211c29" stroke-width="6"/><path d="M137 116 L150 133" stroke="#6b432d" stroke-width="9"/></svg>