<svg xmlns="http://www.w3.org/2000/svg" viewBox="0 0 190 210"><ellipse cx="95" cy="198" rx="73" ry="10" fill="#161322" opacity=".3"/><path d="M35 96 H155 L146 194 H44Z" fill="#ddd0b7" stroke="#29202d" stroke-width="7"/><path d="M43 113 H147 M40 145 H150 M44 174 H146" stroke="#9d8978" stroke-width="5"/><path d="M27 99 V58 H49 V77 H68 V58 H90 V77 H111 V58 H133 V77 H158 V100Z" fill="#65758e" stroke="#29202d" stroke-width="7"/><path d="M64 194 V151 Q95 119 126 151 V194" fill="#2a2230" stroke="#29202d" stroke-width="7"/><path d="M48 120 L66 120 66 142 48 142 M124 120 L142 120 142 142 124 142" fill="#ffc75c" stroke="#29202d" stroke-width="4"/><path d="M22 78 L7 61 31 65 M166 78 L183 61 158 65" fill="#3159b8" stroke="#29202d" stroke-width="5"/><path d="M78 54 L95 20 112 54" fill="#e7b34b" stroke="#29202d" stroke-width="6"/></svg>