<svg xmlns="http://www.w3.org/2000/svg" viewBox="0 0 180 210"><ellipse cx="90" cy="198" rx="67" ry="10" fill="#161322" opacity=".3"/><path d="M47 90 L133 90 127 194 53 194Z" fill="#8c603b" stroke="#261c2b" stroke-width="7"/><path d="M55 96 L55 188 M125 96 L125 188 M52 121 H129 M51 155 H129" stroke="#d2a46c" stroke-width="6"/><path d="M35 90 L90 32 145 90 132 103 90 73 48 103Z" fill="#287f55" stroke="#261c2b" stroke-width="7"/><path d="M45 79 L28 55 54 60 M135 79 L153 55 126 60" fill="#d7b35d" stroke="#261c2b" stroke-width="5"/><path d="M64 194 V153 Q90 129 116 153 V194" fill="#251d2d" stroke="#261c2b" stroke-width="6"/><path d="M66 111 H82 V137 H66Z M98 111 H114 V137 H98Z" fill="#ffdf7c" stroke="#261c2b" stroke-width="4"/><circle cx="90" cy="57" r="13" fill="#ffd7bd" stroke="#261c2b" stroke-width="4"/><path d="M75 58 Q77 39 91 40 Q108 40 106 61 L98 53 90 62 82 52Z" fill="#f2e7c7" stroke="#261c2b" stroke-width="4"/><path d="M58 72 Q90 53 122 72" fill="none" stroke="#cda45c" stroke-width="5"/><path d="M56 72 Q74 88 56 104 M124 72 Q106 88 124 104" fill="none" stroke="#7ce0a1" stroke-width="4"/></svg>